<mxfile host="app.diagrams.net" modified="2023-11-06T18:02:39.441Z" agent="Mozilla/5.0 (Macintosh; Intel Mac OS X 10_15_7) AppleWebKit/605.1.15 (KHTML, like Gecko) Version/13.1.3 Safari/605.1.15" etag="UwlF1kN78msIs24DWF_V" version="22.0.8" type="device" pages="5">
  <diagram id="C5RBs43oDa-KdzZeNtuy" name="Page-1">
    <mxGraphModel dx="954" dy="1833" grid="1" gridSize="10" guides="1" tooltips="1" connect="1" arrows="1" fold="1" page="1" pageScale="1" pageWidth="827" pageHeight="1169" math="0" shadow="0">
      <root>
        <mxCell id="WIyWlLk6GJQsqaUBKTNV-0" />
        <mxCell id="WIyWlLk6GJQsqaUBKTNV-1" parent="WIyWlLk6GJQsqaUBKTNV-0" />
        <mxCell id="DWiv8XEEBJL0qrZ4czIm-2" style="edgeStyle=orthogonalEdgeStyle;rounded=0;orthogonalLoop=1;jettySize=auto;html=1;entryX=0.5;entryY=0;entryDx=0;entryDy=0;" edge="1" parent="WIyWlLk6GJQsqaUBKTNV-1" source="DWiv8XEEBJL0qrZ4czIm-0" target="DWiv8XEEBJL0qrZ4czIm-1">
          <mxGeometry relative="1" as="geometry" />
        </mxCell>
        <mxCell id="DWiv8XEEBJL0qrZ4czIm-0" value="START&amp;nbsp;" style="ellipse;whiteSpace=wrap;html=1;" vertex="1" parent="WIyWlLk6GJQsqaUBKTNV-1">
          <mxGeometry x="20" y="80" width="120" height="80" as="geometry" />
        </mxCell>
        <mxCell id="DWiv8XEEBJL0qrZ4czIm-5" style="edgeStyle=orthogonalEdgeStyle;rounded=0;orthogonalLoop=1;jettySize=auto;html=1;entryX=0.5;entryY=0;entryDx=0;entryDy=0;" edge="1" parent="WIyWlLk6GJQsqaUBKTNV-1" source="DWiv8XEEBJL0qrZ4czIm-1" target="DWiv8XEEBJL0qrZ4czIm-3">
          <mxGeometry relative="1" as="geometry" />
        </mxCell>
        <mxCell id="DWiv8XEEBJL0qrZ4czIm-1" value="a,b,c&amp;nbsp;" style="rounded=0;whiteSpace=wrap;html=1;" vertex="1" parent="WIyWlLk6GJQsqaUBKTNV-1">
          <mxGeometry x="20" y="240" width="120" height="60" as="geometry" />
        </mxCell>
        <mxCell id="DWiv8XEEBJL0qrZ4czIm-6" style="edgeStyle=orthogonalEdgeStyle;rounded=0;orthogonalLoop=1;jettySize=auto;html=1;entryX=0.5;entryY=0;entryDx=0;entryDy=0;" edge="1" parent="WIyWlLk6GJQsqaUBKTNV-1" source="DWiv8XEEBJL0qrZ4czIm-3" target="DWiv8XEEBJL0qrZ4czIm-4">
          <mxGeometry relative="1" as="geometry" />
        </mxCell>
        <mxCell id="DWiv8XEEBJL0qrZ4czIm-3" value="a,b,c&amp;nbsp;" style="shape=parallelogram;perimeter=parallelogramPerimeter;whiteSpace=wrap;html=1;fixedSize=1;" vertex="1" parent="WIyWlLk6GJQsqaUBKTNV-1">
          <mxGeometry x="20" y="360" width="120" height="60" as="geometry" />
        </mxCell>
        <mxCell id="DWiv8XEEBJL0qrZ4czIm-8" style="edgeStyle=orthogonalEdgeStyle;rounded=0;orthogonalLoop=1;jettySize=auto;html=1;entryX=0;entryY=0.5;entryDx=0;entryDy=0;" edge="1" parent="WIyWlLk6GJQsqaUBKTNV-1" source="DWiv8XEEBJL0qrZ4czIm-4" target="DWiv8XEEBJL0qrZ4czIm-7">
          <mxGeometry relative="1" as="geometry" />
        </mxCell>
        <mxCell id="DWiv8XEEBJL0qrZ4czIm-4" value="min = a" style="rounded=0;whiteSpace=wrap;html=1;" vertex="1" parent="WIyWlLk6GJQsqaUBKTNV-1">
          <mxGeometry x="20" y="480" width="120" height="60" as="geometry" />
        </mxCell>
        <mxCell id="DWiv8XEEBJL0qrZ4czIm-11" style="edgeStyle=orthogonalEdgeStyle;rounded=0;orthogonalLoop=1;jettySize=auto;html=1;entryX=0;entryY=0.5;entryDx=0;entryDy=0;" edge="1" parent="WIyWlLk6GJQsqaUBKTNV-1" source="DWiv8XEEBJL0qrZ4czIm-7" target="DWiv8XEEBJL0qrZ4czIm-10">
          <mxGeometry relative="1" as="geometry" />
        </mxCell>
        <mxCell id="DWiv8XEEBJL0qrZ4czIm-12" value="false&amp;nbsp;" style="edgeLabel;html=1;align=center;verticalAlign=middle;resizable=0;points=[];" vertex="1" connectable="0" parent="DWiv8XEEBJL0qrZ4czIm-11">
          <mxGeometry x="-0.2273" y="1" relative="1" as="geometry">
            <mxPoint as="offset" />
          </mxGeometry>
        </mxCell>
        <mxCell id="DWiv8XEEBJL0qrZ4czIm-13" style="edgeStyle=orthogonalEdgeStyle;rounded=0;orthogonalLoop=1;jettySize=auto;html=1;entryX=0;entryY=0.5;entryDx=0;entryDy=0;" edge="1" parent="WIyWlLk6GJQsqaUBKTNV-1" source="DWiv8XEEBJL0qrZ4czIm-7" target="DWiv8XEEBJL0qrZ4czIm-9">
          <mxGeometry relative="1" as="geometry">
            <Array as="points">
              <mxPoint x="300" y="390" />
            </Array>
          </mxGeometry>
        </mxCell>
        <mxCell id="DWiv8XEEBJL0qrZ4czIm-14" value="true&amp;nbsp;" style="edgeLabel;html=1;align=center;verticalAlign=middle;resizable=0;points=[];" vertex="1" connectable="0" parent="DWiv8XEEBJL0qrZ4czIm-13">
          <mxGeometry x="-0.2625" relative="1" as="geometry">
            <mxPoint as="offset" />
          </mxGeometry>
        </mxCell>
        <mxCell id="DWiv8XEEBJL0qrZ4czIm-7" value="min &amp;gt;b&amp;nbsp;" style="rhombus;whiteSpace=wrap;html=1;" vertex="1" parent="WIyWlLk6GJQsqaUBKTNV-1">
          <mxGeometry x="260" y="470" width="80" height="80" as="geometry" />
        </mxCell>
        <mxCell id="DWiv8XEEBJL0qrZ4czIm-15" style="edgeStyle=orthogonalEdgeStyle;rounded=0;orthogonalLoop=1;jettySize=auto;html=1;entryX=0.5;entryY=0;entryDx=0;entryDy=0;" edge="1" parent="WIyWlLk6GJQsqaUBKTNV-1" source="DWiv8XEEBJL0qrZ4czIm-9" target="DWiv8XEEBJL0qrZ4czIm-10">
          <mxGeometry relative="1" as="geometry" />
        </mxCell>
        <mxCell id="DWiv8XEEBJL0qrZ4czIm-9" value="min=b&amp;nbsp;" style="rounded=0;whiteSpace=wrap;html=1;" vertex="1" parent="WIyWlLk6GJQsqaUBKTNV-1">
          <mxGeometry x="380" y="360" width="120" height="60" as="geometry" />
        </mxCell>
        <mxCell id="DWiv8XEEBJL0qrZ4czIm-23" style="edgeStyle=orthogonalEdgeStyle;rounded=0;orthogonalLoop=1;jettySize=auto;html=1;" edge="1" parent="WIyWlLk6GJQsqaUBKTNV-1" source="DWiv8XEEBJL0qrZ4czIm-10">
          <mxGeometry relative="1" as="geometry">
            <mxPoint x="720" y="510" as="targetPoint" />
          </mxGeometry>
        </mxCell>
        <mxCell id="DWiv8XEEBJL0qrZ4czIm-24" value="false&amp;nbsp;" style="edgeLabel;html=1;align=center;verticalAlign=middle;resizable=0;points=[];" vertex="1" connectable="0" parent="DWiv8XEEBJL0qrZ4czIm-23">
          <mxGeometry x="0.2041" y="-3" relative="1" as="geometry">
            <mxPoint as="offset" />
          </mxGeometry>
        </mxCell>
        <mxCell id="DWiv8XEEBJL0qrZ4czIm-10" value="min &amp;gt;c&amp;nbsp;" style="rhombus;whiteSpace=wrap;html=1;" vertex="1" parent="WIyWlLk6GJQsqaUBKTNV-1">
          <mxGeometry x="560" y="470" width="80" height="80" as="geometry" />
        </mxCell>
        <mxCell id="DWiv8XEEBJL0qrZ4czIm-16" value="min = c&amp;nbsp;" style="rounded=0;whiteSpace=wrap;html=1;" vertex="1" parent="WIyWlLk6GJQsqaUBKTNV-1">
          <mxGeometry x="660" y="570" width="120" height="60" as="geometry" />
        </mxCell>
        <mxCell id="DWiv8XEEBJL0qrZ4czIm-17" style="edgeStyle=orthogonalEdgeStyle;rounded=0;orthogonalLoop=1;jettySize=auto;html=1;entryX=0;entryY=0.633;entryDx=0;entryDy=0;entryPerimeter=0;" edge="1" parent="WIyWlLk6GJQsqaUBKTNV-1" source="DWiv8XEEBJL0qrZ4czIm-10" target="DWiv8XEEBJL0qrZ4czIm-16">
          <mxGeometry relative="1" as="geometry">
            <Array as="points">
              <mxPoint x="600" y="570" />
              <mxPoint x="620" y="570" />
              <mxPoint x="620" y="608" />
            </Array>
          </mxGeometry>
        </mxCell>
        <mxCell id="DWiv8XEEBJL0qrZ4czIm-18" value="true&amp;nbsp;" style="edgeLabel;html=1;align=center;verticalAlign=middle;resizable=0;points=[];" vertex="1" connectable="0" parent="DWiv8XEEBJL0qrZ4czIm-17">
          <mxGeometry x="0.0169" relative="1" as="geometry">
            <mxPoint as="offset" />
          </mxGeometry>
        </mxCell>
        <mxCell id="DWiv8XEEBJL0qrZ4czIm-22" style="edgeStyle=orthogonalEdgeStyle;rounded=0;orthogonalLoop=1;jettySize=auto;html=1;entryX=0.5;entryY=1;entryDx=0;entryDy=0;" edge="1" parent="WIyWlLk6GJQsqaUBKTNV-1" source="DWiv8XEEBJL0qrZ4czIm-19" target="DWiv8XEEBJL0qrZ4czIm-21">
          <mxGeometry relative="1" as="geometry" />
        </mxCell>
        <mxCell id="DWiv8XEEBJL0qrZ4czIm-19" value="min&amp;nbsp;" style="shape=parallelogram;perimeter=parallelogramPerimeter;whiteSpace=wrap;html=1;fixedSize=1;" vertex="1" parent="WIyWlLk6GJQsqaUBKTNV-1">
          <mxGeometry x="680" y="140" width="120" height="60" as="geometry" />
        </mxCell>
        <mxCell id="DWiv8XEEBJL0qrZ4czIm-20" style="edgeStyle=orthogonalEdgeStyle;rounded=0;orthogonalLoop=1;jettySize=auto;html=1;entryX=0.333;entryY=1;entryDx=0;entryDy=0;entryPerimeter=0;" edge="1" parent="WIyWlLk6GJQsqaUBKTNV-1" source="DWiv8XEEBJL0qrZ4czIm-16" target="DWiv8XEEBJL0qrZ4czIm-19">
          <mxGeometry relative="1" as="geometry" />
        </mxCell>
        <mxCell id="DWiv8XEEBJL0qrZ4czIm-21" value="end&amp;nbsp;" style="ellipse;whiteSpace=wrap;html=1;" vertex="1" parent="WIyWlLk6GJQsqaUBKTNV-1">
          <mxGeometry x="680" y="-10" width="120" height="80" as="geometry" />
        </mxCell>
        <mxCell id="DWiv8XEEBJL0qrZ4czIm-25" value="bÃ i 1&amp;nbsp;" style="text;strokeColor=none;align=center;fillColor=none;html=1;verticalAlign=middle;whiteSpace=wrap;rounded=0;" vertex="1" parent="WIyWlLk6GJQsqaUBKTNV-1">
          <mxGeometry x="340" y="200" width="60" height="30" as="geometry" />
        </mxCell>
      </root>
    </mxGraphModel>
  </diagram>
  <diagram id="sLhwwEvkfsc13CX-Cc6c" name="Trang-2">
    <mxGraphModel dx="954" dy="664" grid="1" gridSize="10" guides="1" tooltips="1" connect="1" arrows="1" fold="1" page="1" pageScale="1" pageWidth="827" pageHeight="1169" math="0" shadow="0">
      <root>
        <mxCell id="0" />
        <mxCell id="1" parent="0" />
        <mxCell id="rLVTRJuDt63NCx49Ljsz-14" value="" style="edgeStyle=orthogonalEdgeStyle;rounded=0;orthogonalLoop=1;jettySize=auto;html=1;" edge="1" parent="1" source="rLVTRJuDt63NCx49Ljsz-1" target="rLVTRJuDt63NCx49Ljsz-3">
          <mxGeometry relative="1" as="geometry" />
        </mxCell>
        <mxCell id="rLVTRJuDt63NCx49Ljsz-1" value="start&amp;nbsp;" style="ellipse;whiteSpace=wrap;html=1;" vertex="1" parent="1">
          <mxGeometry x="30" y="50" width="120" height="80" as="geometry" />
        </mxCell>
        <mxCell id="rLVTRJuDt63NCx49Ljsz-15" style="edgeStyle=orthogonalEdgeStyle;rounded=0;orthogonalLoop=1;jettySize=auto;html=1;" edge="1" parent="1" source="rLVTRJuDt63NCx49Ljsz-3" target="rLVTRJuDt63NCx49Ljsz-4">
          <mxGeometry relative="1" as="geometry" />
        </mxCell>
        <mxCell id="rLVTRJuDt63NCx49Ljsz-3" value="a,b,x&amp;nbsp;" style="shape=parallelogram;perimeter=parallelogramPerimeter;whiteSpace=wrap;html=1;fixedSize=1;size=-200;" vertex="1" parent="1">
          <mxGeometry x="30" y="210" width="120" height="60" as="geometry" />
        </mxCell>
        <mxCell id="rLVTRJuDt63NCx49Ljsz-16" style="edgeStyle=orthogonalEdgeStyle;rounded=0;orthogonalLoop=1;jettySize=auto;html=1;entryX=0.5;entryY=0;entryDx=0;entryDy=0;" edge="1" parent="1" source="rLVTRJuDt63NCx49Ljsz-4" target="rLVTRJuDt63NCx49Ljsz-5">
          <mxGeometry relative="1" as="geometry" />
        </mxCell>
        <mxCell id="rLVTRJuDt63NCx49Ljsz-4" value="a,b&amp;nbsp;" style="shape=parallelogram;perimeter=parallelogramPerimeter;whiteSpace=wrap;html=1;fixedSize=1;" vertex="1" parent="1">
          <mxGeometry x="30" y="340" width="120" height="60" as="geometry" />
        </mxCell>
        <mxCell id="rLVTRJuDt63NCx49Ljsz-8" style="edgeStyle=orthogonalEdgeStyle;rounded=0;orthogonalLoop=1;jettySize=auto;html=1;entryX=0.5;entryY=0;entryDx=0;entryDy=0;" edge="1" parent="1" source="rLVTRJuDt63NCx49Ljsz-5" target="rLVTRJuDt63NCx49Ljsz-6">
          <mxGeometry relative="1" as="geometry" />
        </mxCell>
        <mxCell id="rLVTRJuDt63NCx49Ljsz-9" value="true&amp;nbsp;" style="edgeLabel;html=1;align=center;verticalAlign=middle;resizable=0;points=[];" vertex="1" connectable="0" parent="rLVTRJuDt63NCx49Ljsz-8">
          <mxGeometry x="-0.2571" y="-1" relative="1" as="geometry">
            <mxPoint as="offset" />
          </mxGeometry>
        </mxCell>
        <mxCell id="rLVTRJuDt63NCx49Ljsz-13" style="edgeStyle=orthogonalEdgeStyle;rounded=0;orthogonalLoop=1;jettySize=auto;html=1;" edge="1" parent="1" source="rLVTRJuDt63NCx49Ljsz-5" target="rLVTRJuDt63NCx49Ljsz-7">
          <mxGeometry relative="1" as="geometry" />
        </mxCell>
        <mxCell id="rLVTRJuDt63NCx49Ljsz-22" value="true&amp;nbsp;" style="edgeLabel;html=1;align=center;verticalAlign=middle;resizable=0;points=[];" vertex="1" connectable="0" parent="rLVTRJuDt63NCx49Ljsz-13">
          <mxGeometry x="-0.1333" y="-1" relative="1" as="geometry">
            <mxPoint as="offset" />
          </mxGeometry>
        </mxCell>
        <mxCell id="rLVTRJuDt63NCx49Ljsz-5" value="a=0&amp;nbsp;" style="rhombus;whiteSpace=wrap;html=1;" vertex="1" parent="1">
          <mxGeometry x="50" y="460" width="80" height="80" as="geometry" />
        </mxCell>
        <mxCell id="rLVTRJuDt63NCx49Ljsz-20" style="edgeStyle=orthogonalEdgeStyle;rounded=0;orthogonalLoop=1;jettySize=auto;html=1;entryX=0;entryY=0.5;entryDx=0;entryDy=0;" edge="1" parent="1" source="rLVTRJuDt63NCx49Ljsz-6" target="rLVTRJuDt63NCx49Ljsz-19">
          <mxGeometry relative="1" as="geometry" />
        </mxCell>
        <mxCell id="rLVTRJuDt63NCx49Ljsz-21" value="true&amp;nbsp;" style="edgeLabel;html=1;align=center;verticalAlign=middle;resizable=0;points=[];" vertex="1" connectable="0" parent="rLVTRJuDt63NCx49Ljsz-20">
          <mxGeometry x="-0.1231" y="-2" relative="1" as="geometry">
            <mxPoint as="offset" />
          </mxGeometry>
        </mxCell>
        <mxCell id="rLVTRJuDt63NCx49Ljsz-6" value="b=c&amp;nbsp;" style="rhombus;whiteSpace=wrap;html=1;" vertex="1" parent="1">
          <mxGeometry x="50" y="610" width="80" height="80" as="geometry" />
        </mxCell>
        <mxCell id="rLVTRJuDt63NCx49Ljsz-18" style="edgeStyle=orthogonalEdgeStyle;rounded=0;orthogonalLoop=1;jettySize=auto;html=1;entryX=0;entryY=0.5;entryDx=0;entryDy=0;" edge="1" parent="1" source="rLVTRJuDt63NCx49Ljsz-7" target="rLVTRJuDt63NCx49Ljsz-17">
          <mxGeometry relative="1" as="geometry" />
        </mxCell>
        <mxCell id="rLVTRJuDt63NCx49Ljsz-23" value="false&amp;nbsp;" style="edgeLabel;html=1;align=center;verticalAlign=middle;resizable=0;points=[];" vertex="1" connectable="0" parent="rLVTRJuDt63NCx49Ljsz-18">
          <mxGeometry x="-0.0889" y="-1" relative="1" as="geometry">
            <mxPoint as="offset" />
          </mxGeometry>
        </mxCell>
        <mxCell id="rLVTRJuDt63NCx49Ljsz-7" value="b=0&amp;nbsp;" style="rhombus;whiteSpace=wrap;html=1;" vertex="1" parent="1">
          <mxGeometry x="280" y="460" width="80" height="80" as="geometry" />
        </mxCell>
        <mxCell id="rLVTRJuDt63NCx49Ljsz-25" style="edgeStyle=orthogonalEdgeStyle;rounded=0;orthogonalLoop=1;jettySize=auto;html=1;entryX=0;entryY=0.5;entryDx=0;entryDy=0;" edge="1" parent="1" source="rLVTRJuDt63NCx49Ljsz-10" target="rLVTRJuDt63NCx49Ljsz-24">
          <mxGeometry relative="1" as="geometry" />
        </mxCell>
        <mxCell id="rLVTRJuDt63NCx49Ljsz-10" value="x= vo nghiem&amp;nbsp;" style="rounded=0;whiteSpace=wrap;html=1;" vertex="1" parent="1">
          <mxGeometry x="30" y="760" width="120" height="60" as="geometry" />
        </mxCell>
        <mxCell id="rLVTRJuDt63NCx49Ljsz-11" style="edgeStyle=orthogonalEdgeStyle;rounded=0;orthogonalLoop=1;jettySize=auto;html=1;entryX=0.45;entryY=0.05;entryDx=0;entryDy=0;entryPerimeter=0;" edge="1" parent="1" source="rLVTRJuDt63NCx49Ljsz-6" target="rLVTRJuDt63NCx49Ljsz-10">
          <mxGeometry relative="1" as="geometry">
            <Array as="points">
              <mxPoint x="90" y="763" />
            </Array>
          </mxGeometry>
        </mxCell>
        <mxCell id="rLVTRJuDt63NCx49Ljsz-12" value="false&amp;nbsp;" style="edgeLabel;html=1;align=center;verticalAlign=middle;resizable=0;points=[];" vertex="1" connectable="0" parent="rLVTRJuDt63NCx49Ljsz-11">
          <mxGeometry x="-0.0886" y="4" relative="1" as="geometry">
            <mxPoint as="offset" />
          </mxGeometry>
        </mxCell>
        <mxCell id="rLVTRJuDt63NCx49Ljsz-27" style="edgeStyle=orthogonalEdgeStyle;rounded=0;orthogonalLoop=1;jettySize=auto;html=1;entryX=0.5;entryY=0;entryDx=0;entryDy=0;" edge="1" parent="1" source="rLVTRJuDt63NCx49Ljsz-17" target="rLVTRJuDt63NCx49Ljsz-24">
          <mxGeometry relative="1" as="geometry" />
        </mxCell>
        <mxCell id="rLVTRJuDt63NCx49Ljsz-17" value="x= -b/a&amp;nbsp;" style="rounded=0;whiteSpace=wrap;html=1;" vertex="1" parent="1">
          <mxGeometry x="450" y="470" width="120" height="60" as="geometry" />
        </mxCell>
        <mxCell id="rLVTRJuDt63NCx49Ljsz-26" style="edgeStyle=orthogonalEdgeStyle;rounded=0;orthogonalLoop=1;jettySize=auto;html=1;entryX=0;entryY=0;entryDx=0;entryDy=0;" edge="1" parent="1" source="rLVTRJuDt63NCx49Ljsz-19" target="rLVTRJuDt63NCx49Ljsz-24">
          <mxGeometry relative="1" as="geometry" />
        </mxCell>
        <mxCell id="rLVTRJuDt63NCx49Ljsz-19" value="x= vo so nghiem&amp;nbsp;" style="rounded=0;whiteSpace=wrap;html=1;" vertex="1" parent="1">
          <mxGeometry x="260" y="620" width="120" height="60" as="geometry" />
        </mxCell>
        <mxCell id="rLVTRJuDt63NCx49Ljsz-29" style="edgeStyle=orthogonalEdgeStyle;rounded=0;orthogonalLoop=1;jettySize=auto;html=1;entryX=0;entryY=0.5;entryDx=0;entryDy=0;" edge="1" parent="1" source="rLVTRJuDt63NCx49Ljsz-24" target="rLVTRJuDt63NCx49Ljsz-28">
          <mxGeometry relative="1" as="geometry" />
        </mxCell>
        <mxCell id="rLVTRJuDt63NCx49Ljsz-24" value="x&amp;nbsp;" style="rounded=0;whiteSpace=wrap;html=1;" vertex="1" parent="1">
          <mxGeometry x="590" y="760" width="120" height="60" as="geometry" />
        </mxCell>
        <mxCell id="rLVTRJuDt63NCx49Ljsz-28" value="end&amp;nbsp;" style="ellipse;whiteSpace=wrap;html=1;" vertex="1" parent="1">
          <mxGeometry x="790" y="750" width="120" height="80" as="geometry" />
        </mxCell>
        <mxCell id="rLVTRJuDt63NCx49Ljsz-30" value="BÃI 2&amp;nbsp;" style="text;html=1;strokeColor=none;fillColor=none;align=center;verticalAlign=middle;whiteSpace=wrap;rounded=0;" vertex="1" parent="1">
          <mxGeometry x="460" y="380" width="60" height="30" as="geometry" />
        </mxCell>
      </root>
    </mxGraphModel>
  </diagram>
  <diagram id="3oFO7qn_yVD2V0Qo8TuI" name="Trang-3">
    <mxGraphModel dx="1781" dy="664" grid="1" gridSize="10" guides="1" tooltips="1" connect="1" arrows="1" fold="1" page="1" pageScale="1" pageWidth="827" pageHeight="1169" math="0" shadow="0">
      <root>
        <mxCell id="0" />
        <mxCell id="1" parent="0" />
        <mxCell id="-kAU8bjnk_MSLveAwVhE-8" style="edgeStyle=orthogonalEdgeStyle;rounded=0;orthogonalLoop=1;jettySize=auto;html=1;entryX=0.5;entryY=0;entryDx=0;entryDy=0;" edge="1" parent="1" source="-kAU8bjnk_MSLveAwVhE-1" target="-kAU8bjnk_MSLveAwVhE-2">
          <mxGeometry relative="1" as="geometry" />
        </mxCell>
        <mxCell id="-kAU8bjnk_MSLveAwVhE-1" value="START&amp;nbsp;" style="ellipse;whiteSpace=wrap;html=1;" vertex="1" parent="1">
          <mxGeometry x="120" y="50" width="120" height="80" as="geometry" />
        </mxCell>
        <mxCell id="-kAU8bjnk_MSLveAwVhE-9" style="edgeStyle=orthogonalEdgeStyle;rounded=0;orthogonalLoop=1;jettySize=auto;html=1;entryX=0.638;entryY=0.188;entryDx=0;entryDy=0;entryPerimeter=0;" edge="1" parent="1" source="-kAU8bjnk_MSLveAwVhE-2" target="-kAU8bjnk_MSLveAwVhE-3">
          <mxGeometry relative="1" as="geometry">
            <Array as="points">
              <mxPoint x="180" y="355" />
            </Array>
          </mxGeometry>
        </mxCell>
        <mxCell id="-kAU8bjnk_MSLveAwVhE-2" value="a,b&amp;nbsp;" style="shape=parallelogram;perimeter=parallelogramPerimeter;whiteSpace=wrap;html=1;fixedSize=1;" vertex="1" parent="1">
          <mxGeometry x="120" y="200" width="120" height="60" as="geometry" />
        </mxCell>
        <mxCell id="-kAU8bjnk_MSLveAwVhE-7" style="edgeStyle=orthogonalEdgeStyle;rounded=0;orthogonalLoop=1;jettySize=auto;html=1;" edge="1" parent="1" source="-kAU8bjnk_MSLveAwVhE-3" target="-kAU8bjnk_MSLveAwVhE-4">
          <mxGeometry relative="1" as="geometry" />
        </mxCell>
        <mxCell id="-kAU8bjnk_MSLveAwVhE-22" value="true&amp;nbsp;" style="edgeLabel;html=1;align=center;verticalAlign=middle;resizable=0;points=[];" vertex="1" connectable="0" parent="-kAU8bjnk_MSLveAwVhE-7">
          <mxGeometry x="-0.4247" y="-1" relative="1" as="geometry">
            <mxPoint as="offset" />
          </mxGeometry>
        </mxCell>
        <mxCell id="-kAU8bjnk_MSLveAwVhE-12" style="edgeStyle=orthogonalEdgeStyle;rounded=0;orthogonalLoop=1;jettySize=auto;html=1;entryX=0.5;entryY=0;entryDx=0;entryDy=0;" edge="1" parent="1" source="-kAU8bjnk_MSLveAwVhE-3" target="-kAU8bjnk_MSLveAwVhE-11">
          <mxGeometry relative="1" as="geometry" />
        </mxCell>
        <mxCell id="-kAU8bjnk_MSLveAwVhE-13" value="FALSE&amp;nbsp;" style="edgeLabel;html=1;align=center;verticalAlign=middle;resizable=0;points=[];" vertex="1" connectable="0" parent="-kAU8bjnk_MSLveAwVhE-12">
          <mxGeometry relative="1" as="geometry">
            <mxPoint as="offset" />
          </mxGeometry>
        </mxCell>
        <mxCell id="-kAU8bjnk_MSLveAwVhE-3" value="a=b&amp;nbsp;" style="rhombus;whiteSpace=wrap;html=1;" vertex="1" parent="1">
          <mxGeometry x="140" y="340" width="80" height="80" as="geometry" />
        </mxCell>
        <mxCell id="-kAU8bjnk_MSLveAwVhE-6" style="edgeStyle=orthogonalEdgeStyle;rounded=0;orthogonalLoop=1;jettySize=auto;html=1;entryX=0;entryY=0.5;entryDx=0;entryDy=0;" edge="1" parent="1" source="-kAU8bjnk_MSLveAwVhE-4" target="-kAU8bjnk_MSLveAwVhE-5">
          <mxGeometry relative="1" as="geometry" />
        </mxCell>
        <mxCell id="-kAU8bjnk_MSLveAwVhE-4" value="UCLN&amp;nbsp;" style="shape=parallelogram;perimeter=parallelogramPerimeter;whiteSpace=wrap;html=1;fixedSize=1;" vertex="1" parent="1">
          <mxGeometry x="356" y="350" width="116" height="60" as="geometry" />
        </mxCell>
        <mxCell id="-kAU8bjnk_MSLveAwVhE-5" value="BCLN= a*b/UCLN&amp;nbsp;" style="shape=parallelogram;perimeter=parallelogramPerimeter;whiteSpace=wrap;html=1;fixedSize=1;" vertex="1" parent="1">
          <mxGeometry x="610" y="350" width="140" height="60" as="geometry" />
        </mxCell>
        <mxCell id="-kAU8bjnk_MSLveAwVhE-11" value="a&amp;gt;b" style="rhombus;whiteSpace=wrap;html=1;" vertex="1" parent="1">
          <mxGeometry x="140" y="480" width="80" height="80" as="geometry" />
        </mxCell>
        <mxCell id="-kAU8bjnk_MSLveAwVhE-14" value="a= b-a&amp;nbsp;" style="rounded=0;whiteSpace=wrap;html=1;" vertex="1" parent="1">
          <mxGeometry x="10" y="610" width="120" height="60" as="geometry" />
        </mxCell>
        <mxCell id="-kAU8bjnk_MSLveAwVhE-20" style="edgeStyle=orthogonalEdgeStyle;rounded=0;orthogonalLoop=1;jettySize=auto;html=1;exitX=0.417;exitY=1.017;exitDx=0;exitDy=0;exitPerimeter=0;" edge="1" parent="1" source="-kAU8bjnk_MSLveAwVhE-15">
          <mxGeometry relative="1" as="geometry">
            <mxPoint x="180" y="310" as="targetPoint" />
            <mxPoint x="290" y="720" as="sourcePoint" />
            <Array as="points">
              <mxPoint x="286" y="722" />
              <mxPoint y="722" />
              <mxPoint y="310" />
            </Array>
          </mxGeometry>
        </mxCell>
        <mxCell id="-kAU8bjnk_MSLveAwVhE-15" value="a=a-b&amp;nbsp;" style="rounded=0;whiteSpace=wrap;html=1;" vertex="1" parent="1">
          <mxGeometry x="236" y="610" width="120" height="60" as="geometry" />
        </mxCell>
        <mxCell id="-kAU8bjnk_MSLveAwVhE-16" style="edgeStyle=orthogonalEdgeStyle;rounded=0;orthogonalLoop=1;jettySize=auto;html=1;entryX=0.383;entryY=-0.017;entryDx=0;entryDy=0;entryPerimeter=0;" edge="1" parent="1" source="-kAU8bjnk_MSLveAwVhE-11" target="-kAU8bjnk_MSLveAwVhE-14">
          <mxGeometry relative="1" as="geometry" />
        </mxCell>
        <mxCell id="-kAU8bjnk_MSLveAwVhE-18" value="false&amp;nbsp;" style="edgeLabel;html=1;align=center;verticalAlign=middle;resizable=0;points=[];" vertex="1" connectable="0" parent="-kAU8bjnk_MSLveAwVhE-16">
          <mxGeometry x="0.2834" y="-2" relative="1" as="geometry">
            <mxPoint as="offset" />
          </mxGeometry>
        </mxCell>
        <mxCell id="-kAU8bjnk_MSLveAwVhE-17" style="edgeStyle=orthogonalEdgeStyle;rounded=0;orthogonalLoop=1;jettySize=auto;html=1;entryX=0.575;entryY=-0.017;entryDx=0;entryDy=0;entryPerimeter=0;" edge="1" parent="1" source="-kAU8bjnk_MSLveAwVhE-11" target="-kAU8bjnk_MSLveAwVhE-15">
          <mxGeometry relative="1" as="geometry" />
        </mxCell>
        <mxCell id="-kAU8bjnk_MSLveAwVhE-19" value="true&amp;nbsp;" style="edgeLabel;html=1;align=center;verticalAlign=middle;resizable=0;points=[];" vertex="1" connectable="0" parent="-kAU8bjnk_MSLveAwVhE-17">
          <mxGeometry x="0.3105" y="2" relative="1" as="geometry">
            <mxPoint as="offset" />
          </mxGeometry>
        </mxCell>
        <mxCell id="-kAU8bjnk_MSLveAwVhE-21" value="" style="endArrow=none;html=1;rounded=0;entryX=0.425;entryY=1.083;entryDx=0;entryDy=0;entryPerimeter=0;" edge="1" parent="1" target="-kAU8bjnk_MSLveAwVhE-14">
          <mxGeometry width="50" height="50" relative="1" as="geometry">
            <mxPoint x="60" y="720" as="sourcePoint" />
            <mxPoint x="340" y="430" as="targetPoint" />
          </mxGeometry>
        </mxCell>
        <mxCell id="-kAU8bjnk_MSLveAwVhE-23" value="bÃ i 3&amp;nbsp;" style="text;html=1;strokeColor=none;fillColor=none;align=center;verticalAlign=middle;whiteSpace=wrap;rounded=0;" vertex="1" parent="1">
          <mxGeometry x="320" y="250" width="60" height="30" as="geometry" />
        </mxCell>
      </root>
    </mxGraphModel>
  </diagram>
  <diagram id="m7YgPjezX2NhMvUjlRj7" name="Trang-5">
    <mxGraphModel dx="954" dy="664" grid="1" gridSize="10" guides="1" tooltips="1" connect="1" arrows="1" fold="1" page="1" pageScale="1" pageWidth="827" pageHeight="1169" math="0" shadow="0">
      <root>
        <mxCell id="0" />
        <mxCell id="1" parent="0" />
        <mxCell id="ndSfcKit9Xmr0iQtxZ8e-6" style="edgeStyle=orthogonalEdgeStyle;rounded=0;orthogonalLoop=1;jettySize=auto;html=1;" edge="1" parent="1" source="ndSfcKit9Xmr0iQtxZ8e-1" target="ndSfcKit9Xmr0iQtxZ8e-2">
          <mxGeometry relative="1" as="geometry" />
        </mxCell>
        <mxCell id="ndSfcKit9Xmr0iQtxZ8e-1" value="start&amp;nbsp;" style="ellipse;whiteSpace=wrap;html=1;" vertex="1" parent="1">
          <mxGeometry x="100" y="90" width="120" height="80" as="geometry" />
        </mxCell>
        <mxCell id="ndSfcKit9Xmr0iQtxZ8e-7" style="edgeStyle=orthogonalEdgeStyle;rounded=0;orthogonalLoop=1;jettySize=auto;html=1;entryX=0.5;entryY=0;entryDx=0;entryDy=0;" edge="1" parent="1" source="ndSfcKit9Xmr0iQtxZ8e-2" target="ndSfcKit9Xmr0iQtxZ8e-3">
          <mxGeometry relative="1" as="geometry" />
        </mxCell>
        <mxCell id="ndSfcKit9Xmr0iQtxZ8e-2" value="a,b,c&amp;nbsp;" style="shape=parallelogram;perimeter=parallelogramPerimeter;whiteSpace=wrap;html=1;fixedSize=1;" vertex="1" parent="1">
          <mxGeometry x="100" y="250" width="120" height="60" as="geometry" />
        </mxCell>
        <mxCell id="ndSfcKit9Xmr0iQtxZ8e-5" style="edgeStyle=orthogonalEdgeStyle;rounded=0;orthogonalLoop=1;jettySize=auto;html=1;" edge="1" parent="1" source="ndSfcKit9Xmr0iQtxZ8e-3" target="ndSfcKit9Xmr0iQtxZ8e-4">
          <mxGeometry relative="1" as="geometry" />
        </mxCell>
        <mxCell id="ndSfcKit9Xmr0iQtxZ8e-22" value="true&amp;nbsp;" style="edgeLabel;html=1;align=center;verticalAlign=middle;resizable=0;points=[];" vertex="1" connectable="0" parent="ndSfcKit9Xmr0iQtxZ8e-5">
          <mxGeometry x="-0.0667" y="3" relative="1" as="geometry">
            <mxPoint as="offset" />
          </mxGeometry>
        </mxCell>
        <mxCell id="ndSfcKit9Xmr0iQtxZ8e-13" style="edgeStyle=orthogonalEdgeStyle;rounded=0;orthogonalLoop=1;jettySize=auto;html=1;entryX=0.5;entryY=0;entryDx=0;entryDy=0;" edge="1" parent="1" source="ndSfcKit9Xmr0iQtxZ8e-3" target="ndSfcKit9Xmr0iQtxZ8e-8">
          <mxGeometry relative="1" as="geometry" />
        </mxCell>
        <mxCell id="ndSfcKit9Xmr0iQtxZ8e-3" value="a=0&amp;nbsp;" style="rounded=0;whiteSpace=wrap;html=1;" vertex="1" parent="1">
          <mxGeometry x="100" y="390" width="120" height="60" as="geometry" />
        </mxCell>
        <mxCell id="ndSfcKit9Xmr0iQtxZ8e-25" style="edgeStyle=orthogonalEdgeStyle;rounded=0;orthogonalLoop=1;jettySize=auto;html=1;entryX=0.5;entryY=0;entryDx=0;entryDy=0;" edge="1" parent="1" source="ndSfcKit9Xmr0iQtxZ8e-4" target="ndSfcKit9Xmr0iQtxZ8e-23">
          <mxGeometry relative="1" as="geometry" />
        </mxCell>
        <mxCell id="ndSfcKit9Xmr0iQtxZ8e-4" value="ptrinh bac nhat 1 áº©n&amp;nbsp;" style="rounded=0;whiteSpace=wrap;html=1;" vertex="1" parent="1">
          <mxGeometry x="430" y="390" width="170" height="60" as="geometry" />
        </mxCell>
        <mxCell id="ndSfcKit9Xmr0iQtxZ8e-14" style="edgeStyle=orthogonalEdgeStyle;rounded=0;orthogonalLoop=1;jettySize=auto;html=1;entryX=0.5;entryY=0;entryDx=0;entryDy=0;" edge="1" parent="1" source="ndSfcKit9Xmr0iQtxZ8e-8" target="ndSfcKit9Xmr0iQtxZ8e-9">
          <mxGeometry relative="1" as="geometry" />
        </mxCell>
        <mxCell id="ndSfcKit9Xmr0iQtxZ8e-8" value="delta= b*b-4*a*c&amp;nbsp;" style="rounded=0;whiteSpace=wrap;html=1;" vertex="1" parent="1">
          <mxGeometry x="100" y="525" width="120" height="60" as="geometry" />
        </mxCell>
        <mxCell id="ndSfcKit9Xmr0iQtxZ8e-11" style="edgeStyle=orthogonalEdgeStyle;rounded=0;orthogonalLoop=1;jettySize=auto;html=1;entryX=0;entryY=0.5;entryDx=0;entryDy=0;" edge="1" parent="1" source="ndSfcKit9Xmr0iQtxZ8e-9" target="ndSfcKit9Xmr0iQtxZ8e-10">
          <mxGeometry relative="1" as="geometry" />
        </mxCell>
        <mxCell id="ndSfcKit9Xmr0iQtxZ8e-12" value="true&amp;nbsp;" style="edgeLabel;html=1;align=center;verticalAlign=middle;resizable=0;points=[];" vertex="1" connectable="0" parent="ndSfcKit9Xmr0iQtxZ8e-11">
          <mxGeometry x="-0.1698" y="-2" relative="1" as="geometry">
            <mxPoint as="offset" />
          </mxGeometry>
        </mxCell>
        <mxCell id="ndSfcKit9Xmr0iQtxZ8e-9" value="delta &amp;lt;0&amp;nbsp;" style="rhombus;whiteSpace=wrap;html=1;" vertex="1" parent="1">
          <mxGeometry x="115" y="660" width="90" height="80" as="geometry" />
        </mxCell>
        <mxCell id="ndSfcKit9Xmr0iQtxZ8e-10" value="ptrinh vo nghiem&amp;nbsp;" style="rounded=0;whiteSpace=wrap;html=1;" vertex="1" parent="1">
          <mxGeometry x="465" y="670" width="120" height="60" as="geometry" />
        </mxCell>
        <mxCell id="ndSfcKit9Xmr0iQtxZ8e-17" value="true&amp;nbsp;" style="edgeStyle=orthogonalEdgeStyle;rounded=0;orthogonalLoop=1;jettySize=auto;html=1;entryX=0;entryY=0.25;entryDx=0;entryDy=0;" edge="1" parent="1" source="ndSfcKit9Xmr0iQtxZ8e-15" target="ndSfcKit9Xmr0iQtxZ8e-16">
          <mxGeometry relative="1" as="geometry">
            <Array as="points">
              <mxPoint x="340" y="830" />
              <mxPoint x="340" y="825" />
            </Array>
          </mxGeometry>
        </mxCell>
        <mxCell id="ndSfcKit9Xmr0iQtxZ8e-15" value="delta =0&amp;nbsp;" style="rhombus;whiteSpace=wrap;html=1;" vertex="1" parent="1">
          <mxGeometry x="120" y="790" width="80" height="80" as="geometry" />
        </mxCell>
        <mxCell id="ndSfcKit9Xmr0iQtxZ8e-16" value="ptrinh cÃ³ nhiem duy nháº¥t x=-b/2a" style="rounded=0;whiteSpace=wrap;html=1;" vertex="1" parent="1">
          <mxGeometry x="480" y="810" width="195" height="60" as="geometry" />
        </mxCell>
        <mxCell id="ndSfcKit9Xmr0iQtxZ8e-19" value="ptrinh cÃ³ 2 nghiá»m phÃ¢n biá»t&lt;br&gt;x1= (-b+ cÄn delta )/2a&lt;br&gt;x2= (-b -cÄn delta )/2a" style="rounded=0;whiteSpace=wrap;html=1;" vertex="1" parent="1">
          <mxGeometry x="100" y="980" width="165" height="60" as="geometry" />
        </mxCell>
        <mxCell id="ndSfcKit9Xmr0iQtxZ8e-21" style="edgeStyle=orthogonalEdgeStyle;rounded=0;orthogonalLoop=1;jettySize=auto;html=1;entryX=0.364;entryY=-0.033;entryDx=0;entryDy=0;entryPerimeter=0;" edge="1" parent="1" source="ndSfcKit9Xmr0iQtxZ8e-15" target="ndSfcKit9Xmr0iQtxZ8e-19">
          <mxGeometry relative="1" as="geometry" />
        </mxCell>
        <mxCell id="ndSfcKit9Xmr0iQtxZ8e-23" value="end&amp;nbsp;" style="ellipse;whiteSpace=wrap;html=1;" vertex="1" parent="1">
          <mxGeometry x="700" y="1040" width="120" height="80" as="geometry" />
        </mxCell>
        <mxCell id="ndSfcKit9Xmr0iQtxZ8e-26" value="" style="endArrow=none;html=1;rounded=0;" edge="1" parent="1">
          <mxGeometry width="50" height="50" relative="1" as="geometry">
            <mxPoint x="265" y="1010" as="sourcePoint" />
            <mxPoint x="760" y="1010" as="targetPoint" />
          </mxGeometry>
        </mxCell>
        <mxCell id="ndSfcKit9Xmr0iQtxZ8e-27" value="" style="endArrow=none;html=1;rounded=0;exitX=1;exitY=0.5;exitDx=0;exitDy=0;" edge="1" parent="1" source="ndSfcKit9Xmr0iQtxZ8e-10">
          <mxGeometry width="50" height="50" relative="1" as="geometry">
            <mxPoint x="570" y="721.74" as="sourcePoint" />
            <mxPoint x="770" y="700" as="targetPoint" />
          </mxGeometry>
        </mxCell>
        <mxCell id="ndSfcKit9Xmr0iQtxZ8e-28" value="" style="endArrow=none;html=1;rounded=0;entryX=1;entryY=0.5;entryDx=0;entryDy=0;" edge="1" parent="1" target="ndSfcKit9Xmr0iQtxZ8e-16">
          <mxGeometry width="50" height="50" relative="1" as="geometry">
            <mxPoint x="760" y="840" as="sourcePoint" />
            <mxPoint x="440" y="800" as="targetPoint" />
          </mxGeometry>
        </mxCell>
        <mxCell id="ndSfcKit9Xmr0iQtxZ8e-31" value="bÃ i 4&amp;nbsp;" style="text;html=1;strokeColor=none;fillColor=none;align=center;verticalAlign=middle;whiteSpace=wrap;rounded=0;" vertex="1" parent="1">
          <mxGeometry x="400" y="190" width="60" height="30" as="geometry" />
        </mxCell>
      </root>
    </mxGraphModel>
  </diagram>
  <diagram id="YvsuQnlT2zzRlzj34t6F" name="Trang-4">
    <mxGraphModel dx="954" dy="664" grid="1" gridSize="10" guides="1" tooltips="1" connect="1" arrows="1" fold="1" page="1" pageScale="1" pageWidth="827" pageHeight="1169" math="0" shadow="0">
      <root>
        <mxCell id="0" />
        <mxCell id="1" parent="0" />
        <mxCell id="eJMAOPjs2HK7711zneuS-4" style="edgeStyle=orthogonalEdgeStyle;rounded=0;orthogonalLoop=1;jettySize=auto;html=1;entryX=0.5;entryY=0;entryDx=0;entryDy=0;" edge="1" parent="1" source="eJMAOPjs2HK7711zneuS-1" target="eJMAOPjs2HK7711zneuS-2">
          <mxGeometry relative="1" as="geometry" />
        </mxCell>
        <mxCell id="eJMAOPjs2HK7711zneuS-1" value="start&amp;nbsp;" style="ellipse;whiteSpace=wrap;html=1;" vertex="1" parent="1">
          <mxGeometry x="55" y="100" width="120" height="80" as="geometry" />
        </mxCell>
        <mxCell id="eJMAOPjs2HK7711zneuS-2" value="a,b&amp;nbsp;" style="shape=parallelogram;perimeter=parallelogramPerimeter;whiteSpace=wrap;html=1;fixedSize=1;" vertex="1" parent="1">
          <mxGeometry x="55" y="240" width="120" height="60" as="geometry" />
        </mxCell>
        <mxCell id="eJMAOPjs2HK7711zneuS-13" style="edgeStyle=orthogonalEdgeStyle;rounded=0;orthogonalLoop=1;jettySize=auto;html=1;entryX=0.5;entryY=0;entryDx=0;entryDy=0;" edge="1" parent="1" source="eJMAOPjs2HK7711zneuS-3" target="eJMAOPjs2HK7711zneuS-6">
          <mxGeometry relative="1" as="geometry" />
        </mxCell>
        <mxCell id="eJMAOPjs2HK7711zneuS-3" value="tá»ng = a=b&amp;nbsp;&lt;br&gt;hiá»u= a-b&amp;nbsp;&lt;br&gt;tÃ­ch=a*b&lt;br&gt;thÆ°Æ¡ng = a/b &amp;nbsp;" style="rounded=0;whiteSpace=wrap;html=1;" vertex="1" parent="1">
          <mxGeometry x="55" y="370" width="150" height="80" as="geometry" />
        </mxCell>
        <mxCell id="eJMAOPjs2HK7711zneuS-5" style="edgeStyle=orthogonalEdgeStyle;rounded=0;orthogonalLoop=1;jettySize=auto;html=1;entryX=0.4;entryY=0;entryDx=0;entryDy=0;entryPerimeter=0;" edge="1" parent="1" source="eJMAOPjs2HK7711zneuS-2" target="eJMAOPjs2HK7711zneuS-3">
          <mxGeometry relative="1" as="geometry" />
        </mxCell>
        <mxCell id="eJMAOPjs2HK7711zneuS-10" style="edgeStyle=orthogonalEdgeStyle;rounded=0;orthogonalLoop=1;jettySize=auto;html=1;entryX=0.5;entryY=0;entryDx=0;entryDy=0;" edge="1" parent="1" source="eJMAOPjs2HK7711zneuS-6" target="eJMAOPjs2HK7711zneuS-7">
          <mxGeometry relative="1" as="geometry" />
        </mxCell>
        <mxCell id="eJMAOPjs2HK7711zneuS-18" style="edgeStyle=orthogonalEdgeStyle;rounded=0;orthogonalLoop=1;jettySize=auto;html=1;entryX=0;entryY=0.5;entryDx=0;entryDy=0;" edge="1" parent="1" source="eJMAOPjs2HK7711zneuS-6" target="eJMAOPjs2HK7711zneuS-17">
          <mxGeometry relative="1" as="geometry" />
        </mxCell>
        <mxCell id="eJMAOPjs2HK7711zneuS-6" value="a+b&amp;nbsp;" style="rhombus;whiteSpace=wrap;html=1;" vertex="1" parent="1">
          <mxGeometry x="90" y="520" width="80" height="80" as="geometry" />
        </mxCell>
        <mxCell id="eJMAOPjs2HK7711zneuS-11" style="edgeStyle=orthogonalEdgeStyle;rounded=0;orthogonalLoop=1;jettySize=auto;html=1;entryX=0.5;entryY=0;entryDx=0;entryDy=0;" edge="1" parent="1" source="eJMAOPjs2HK7711zneuS-7" target="eJMAOPjs2HK7711zneuS-8">
          <mxGeometry relative="1" as="geometry" />
        </mxCell>
        <mxCell id="eJMAOPjs2HK7711zneuS-20" style="edgeStyle=orthogonalEdgeStyle;rounded=0;orthogonalLoop=1;jettySize=auto;html=1;" edge="1" parent="1" source="eJMAOPjs2HK7711zneuS-7" target="eJMAOPjs2HK7711zneuS-14">
          <mxGeometry relative="1" as="geometry" />
        </mxCell>
        <mxCell id="eJMAOPjs2HK7711zneuS-7" value="a-b&amp;nbsp;" style="rhombus;whiteSpace=wrap;html=1;" vertex="1" parent="1">
          <mxGeometry x="90" y="660" width="80" height="80" as="geometry" />
        </mxCell>
        <mxCell id="eJMAOPjs2HK7711zneuS-12" style="edgeStyle=orthogonalEdgeStyle;rounded=0;orthogonalLoop=1;jettySize=auto;html=1;entryX=0.5;entryY=0;entryDx=0;entryDy=0;" edge="1" parent="1" source="eJMAOPjs2HK7711zneuS-8" target="eJMAOPjs2HK7711zneuS-9">
          <mxGeometry relative="1" as="geometry" />
        </mxCell>
        <mxCell id="eJMAOPjs2HK7711zneuS-21" style="edgeStyle=orthogonalEdgeStyle;rounded=0;orthogonalLoop=1;jettySize=auto;html=1;" edge="1" parent="1" source="eJMAOPjs2HK7711zneuS-8" target="eJMAOPjs2HK7711zneuS-16">
          <mxGeometry relative="1" as="geometry" />
        </mxCell>
        <mxCell id="eJMAOPjs2HK7711zneuS-8" value="a*b&amp;nbsp;" style="rhombus;whiteSpace=wrap;html=1;" vertex="1" parent="1">
          <mxGeometry x="90" y="820" width="80" height="80" as="geometry" />
        </mxCell>
        <mxCell id="eJMAOPjs2HK7711zneuS-22" style="edgeStyle=orthogonalEdgeStyle;rounded=0;orthogonalLoop=1;jettySize=auto;html=1;" edge="1" parent="1" source="eJMAOPjs2HK7711zneuS-9" target="eJMAOPjs2HK7711zneuS-15">
          <mxGeometry relative="1" as="geometry" />
        </mxCell>
        <mxCell id="eJMAOPjs2HK7711zneuS-9" value="a/b&amp;nbsp;" style="rhombus;whiteSpace=wrap;html=1;" vertex="1" parent="1">
          <mxGeometry x="90" y="960" width="80" height="80" as="geometry" />
        </mxCell>
        <mxCell id="eJMAOPjs2HK7711zneuS-14" value="hiá»u" style="rounded=0;whiteSpace=wrap;html=1;" vertex="1" parent="1">
          <mxGeometry x="300" y="670" width="120" height="60" as="geometry" />
        </mxCell>
        <mxCell id="eJMAOPjs2HK7711zneuS-25" style="edgeStyle=orthogonalEdgeStyle;rounded=0;orthogonalLoop=1;jettySize=auto;html=1;entryX=0.5;entryY=1;entryDx=0;entryDy=0;" edge="1" parent="1" source="eJMAOPjs2HK7711zneuS-15" target="eJMAOPjs2HK7711zneuS-23">
          <mxGeometry relative="1" as="geometry" />
        </mxCell>
        <mxCell id="eJMAOPjs2HK7711zneuS-15" value="thuÆ¡ng" style="rounded=0;whiteSpace=wrap;html=1;" vertex="1" parent="1">
          <mxGeometry x="310" y="970" width="120" height="60" as="geometry" />
        </mxCell>
        <mxCell id="eJMAOPjs2HK7711zneuS-16" value="tÃ­ch" style="rounded=0;whiteSpace=wrap;html=1;" vertex="1" parent="1">
          <mxGeometry x="300" y="830" width="120" height="60" as="geometry" />
        </mxCell>
        <mxCell id="eJMAOPjs2HK7711zneuS-24" style="edgeStyle=orthogonalEdgeStyle;rounded=0;orthogonalLoop=1;jettySize=auto;html=1;entryX=0.5;entryY=0;entryDx=0;entryDy=0;" edge="1" parent="1" source="eJMAOPjs2HK7711zneuS-17" target="eJMAOPjs2HK7711zneuS-23">
          <mxGeometry relative="1" as="geometry" />
        </mxCell>
        <mxCell id="eJMAOPjs2HK7711zneuS-17" value="tá»ng&amp;nbsp;" style="rounded=0;whiteSpace=wrap;html=1;" vertex="1" parent="1">
          <mxGeometry x="300" y="530" width="120" height="60" as="geometry" />
        </mxCell>
        <mxCell id="eJMAOPjs2HK7711zneuS-23" value="end&amp;nbsp;" style="ellipse;whiteSpace=wrap;html=1;" vertex="1" parent="1">
          <mxGeometry x="660" y="720" width="120" height="80" as="geometry" />
        </mxCell>
        <mxCell id="eJMAOPjs2HK7711zneuS-27" value="" style="endArrow=none;html=1;rounded=0;exitX=1.033;exitY=0.367;exitDx=0;exitDy=0;exitPerimeter=0;" edge="1" parent="1" source="eJMAOPjs2HK7711zneuS-14">
          <mxGeometry width="50" height="50" relative="1" as="geometry">
            <mxPoint x="350" y="850" as="sourcePoint" />
            <mxPoint x="720" y="692" as="targetPoint" />
          </mxGeometry>
        </mxCell>
        <mxCell id="eJMAOPjs2HK7711zneuS-28" value="" style="endArrow=none;html=1;rounded=0;exitX=1.017;exitY=0.65;exitDx=0;exitDy=0;exitPerimeter=0;" edge="1" parent="1" source="eJMAOPjs2HK7711zneuS-16">
          <mxGeometry width="50" height="50" relative="1" as="geometry">
            <mxPoint x="350" y="850" as="sourcePoint" />
            <mxPoint x="720" y="870" as="targetPoint" />
          </mxGeometry>
        </mxCell>
        <mxCell id="eJMAOPjs2HK7711zneuS-29" value="" style="endArrow=none;html=1;rounded=0;" edge="1" parent="1">
          <mxGeometry width="50" height="50" relative="1" as="geometry">
            <mxPoint x="570" y="1120" as="sourcePoint" />
            <mxPoint x="570" y="560" as="targetPoint" />
          </mxGeometry>
        </mxCell>
        <mxCell id="eJMAOPjs2HK7711zneuS-30" value="" style="endArrow=none;html=1;rounded=0;" edge="1" parent="1">
          <mxGeometry width="50" height="50" relative="1" as="geometry">
            <mxPoint x="20" y="1120" as="sourcePoint" />
            <mxPoint x="570" y="1120" as="targetPoint" />
          </mxGeometry>
        </mxCell>
        <mxCell id="eJMAOPjs2HK7711zneuS-31" value="" style="endArrow=none;html=1;rounded=0;" edge="1" parent="1">
          <mxGeometry width="50" height="50" relative="1" as="geometry">
            <mxPoint x="20" y="1120" as="sourcePoint" />
            <mxPoint x="20" y="340" as="targetPoint" />
          </mxGeometry>
        </mxCell>
        <mxCell id="eJMAOPjs2HK7711zneuS-32" value="" style="endArrow=classic;html=1;rounded=0;" edge="1" parent="1">
          <mxGeometry width="50" height="50" relative="1" as="geometry">
            <mxPoint x="20" y="340" as="sourcePoint" />
            <mxPoint x="110" y="340" as="targetPoint" />
          </mxGeometry>
        </mxCell>
        <mxCell id="eJMAOPjs2HK7711zneuS-33" value="bÃ i 5&amp;nbsp;" style="text;html=1;strokeColor=none;fillColor=none;align=center;verticalAlign=middle;whiteSpace=wrap;rounded=0;" vertex="1" parent="1">
          <mxGeometry x="350" y="320" width="60" height="30" as="geometry" />
        </mxCell>
      </root>
    </mxGraphModel>
  </diagram>
</mxfile>
